<svg xmlns="http://www.w3.org/2000/svg" width="100" height="100" viewBox="0 0 100 100" fill="none">
  <!-- 背景圆形 -->
  <circle cx="50" cy="50" r="45" fill="#409EFF"/>
  
  <!-- 音符形状 -->
  <path d="M35 30C35 25.5817 38.5817 22 43 22H57V40H43C41.3431 40 40 41.3431 40 43V65C40 66.6569 41.3431 68 43 68H50V80H35V68H43C42.4477 68 42 67.5523 42 67V43C42 42.4477 41.5523 42 41 42H37V30H35Z" fill="white"/>
  
  <!-- 音波效果 -->
  <path d="M65 30C65 28.3431 66.3431 27 68 27H75V39H68C66.3431 39 65 40.3431 65 42V60C65 61.6569 66.3431 63 68 63H75V75H68C66.3431 75 65 73.6569 65 72V42C65 41.4477 64.5523 41 64 41H60V30H65Z" fill="white" opacity="0.8"/>
  
  <!-- 中心点 -->
  <circle cx="50" cy="50" r="3" fill="white"/>
</svg>